<mxfile host="app.diagrams.net" agent="Mozilla/5.0 (X11; Linux x86_64) AppleWebKit/537.36 (KHTML, like Gecko) Chrome/128.0.0.0 Safari/537.36" version="24.7.17">
  <diagram name="Page-1" id="UeWCk0IbnvrhhiWeiUJi">
    <mxGraphModel dx="782" dy="431" grid="1" gridSize="10" guides="1" tooltips="1" connect="1" arrows="1" fold="1" page="1" pageScale="1" pageWidth="827" pageHeight="1169" math="0" shadow="0">
      <root>
        <mxCell id="0" />
        <mxCell id="1" parent="0" />
        <mxCell id="PNV96j3bK7je-6W51t46-6" value="" style="group" vertex="1" connectable="0" parent="1">
          <mxGeometry x="150" y="131" width="80" height="75.5" as="geometry" />
        </mxCell>
        <mxCell id="PNV96j3bK7je-6W51t46-1" value="" style="triangle;whiteSpace=wrap;html=1;rotation=-90;" vertex="1" parent="PNV96j3bK7je-6W51t46-6">
          <mxGeometry x="10" y="-10" width="60" height="80" as="geometry" />
        </mxCell>
        <mxCell id="PNV96j3bK7je-6W51t46-3" value="" style="rounded=0;whiteSpace=wrap;html=1;rotation=90;" vertex="1" parent="PNV96j3bK7je-6W51t46-6">
          <mxGeometry x="32.5" y="61.5" width="15" height="13" as="geometry" />
        </mxCell>
        <mxCell id="PNV96j3bK7je-6W51t46-7" value="" style="group" vertex="1" connectable="0" parent="1">
          <mxGeometry x="300" y="131" width="60" height="55.5" as="geometry" />
        </mxCell>
        <mxCell id="PNV96j3bK7je-6W51t46-8" value="" style="triangle;whiteSpace=wrap;html=1;rotation=-90;" vertex="1" parent="PNV96j3bK7je-6W51t46-7">
          <mxGeometry x="7.5" y="-7.3509933774834435" width="45" height="58.80794701986755" as="geometry" />
        </mxCell>
        <mxCell id="PNV96j3bK7je-6W51t46-9" value="" style="rounded=0;whiteSpace=wrap;html=1;rotation=90;" vertex="1" parent="PNV96j3bK7je-6W51t46-7">
          <mxGeometry x="24.375" y="45.20860927152317" width="11.25" height="9.556291390728475" as="geometry" />
        </mxCell>
        <mxCell id="PNV96j3bK7je-6W51t46-10" value="" style="group" vertex="1" connectable="0" parent="1">
          <mxGeometry x="370" y="131" width="60" height="55.5" as="geometry" />
        </mxCell>
        <mxCell id="PNV96j3bK7je-6W51t46-11" value="" style="triangle;whiteSpace=wrap;html=1;rotation=-90;" vertex="1" parent="PNV96j3bK7je-6W51t46-10">
          <mxGeometry x="7.5" y="-7.3509933774834435" width="45" height="58.80794701986755" as="geometry" />
        </mxCell>
        <mxCell id="PNV96j3bK7je-6W51t46-12" value="" style="rounded=0;whiteSpace=wrap;html=1;rotation=90;" vertex="1" parent="PNV96j3bK7je-6W51t46-10">
          <mxGeometry x="24.375" y="45.20860927152317" width="11.25" height="9.556291390728475" as="geometry" />
        </mxCell>
        <mxCell id="PNV96j3bK7je-6W51t46-13" value="" style="group" vertex="1" connectable="0" parent="1">
          <mxGeometry x="440" y="131" width="60" height="55.5" as="geometry" />
        </mxCell>
        <mxCell id="PNV96j3bK7je-6W51t46-14" value="" style="triangle;whiteSpace=wrap;html=1;rotation=-90;" vertex="1" parent="PNV96j3bK7je-6W51t46-13">
          <mxGeometry x="7.5" y="-7.3509933774834435" width="45" height="58.80794701986755" as="geometry" />
        </mxCell>
        <mxCell id="PNV96j3bK7je-6W51t46-15" value="" style="rounded=0;whiteSpace=wrap;html=1;rotation=90;" vertex="1" parent="PNV96j3bK7je-6W51t46-13">
          <mxGeometry x="24.375" y="45.20860927152317" width="11.25" height="9.556291390728475" as="geometry" />
        </mxCell>
        <mxCell id="PNV96j3bK7je-6W51t46-16" value="" style="group" vertex="1" connectable="0" parent="1">
          <mxGeometry x="570" y="131" width="60" height="55.5" as="geometry" />
        </mxCell>
        <mxCell id="PNV96j3bK7je-6W51t46-17" value="" style="triangle;whiteSpace=wrap;html=1;rotation=-90;" vertex="1" parent="PNV96j3bK7je-6W51t46-16">
          <mxGeometry x="7.5" y="-7.3509933774834435" width="45" height="58.80794701986755" as="geometry" />
        </mxCell>
        <mxCell id="PNV96j3bK7je-6W51t46-18" value="" style="rounded=0;whiteSpace=wrap;html=1;rotation=90;" vertex="1" parent="PNV96j3bK7je-6W51t46-16">
          <mxGeometry x="24.375" y="45.20860927152317" width="11.25" height="9.556291390728475" as="geometry" />
        </mxCell>
        <mxCell id="PNV96j3bK7je-6W51t46-19" value="" style="group" vertex="1" connectable="0" parent="1">
          <mxGeometry x="570" y="207" width="60" height="55.5" as="geometry" />
        </mxCell>
        <mxCell id="PNV96j3bK7je-6W51t46-20" value="" style="triangle;whiteSpace=wrap;html=1;rotation=-90;" vertex="1" parent="PNV96j3bK7je-6W51t46-19">
          <mxGeometry x="7.5" y="-7.3509933774834435" width="45" height="58.80794701986755" as="geometry" />
        </mxCell>
        <mxCell id="PNV96j3bK7je-6W51t46-21" value="" style="rounded=0;whiteSpace=wrap;html=1;rotation=90;" vertex="1" parent="PNV96j3bK7je-6W51t46-19">
          <mxGeometry x="24.375" y="45.20860927152317" width="11.25" height="9.556291390728475" as="geometry" />
        </mxCell>
        <mxCell id="PNV96j3bK7je-6W51t46-22" value="" style="group" vertex="1" connectable="0" parent="1">
          <mxGeometry x="570" y="283" width="60" height="55.5" as="geometry" />
        </mxCell>
        <mxCell id="PNV96j3bK7je-6W51t46-23" value="" style="triangle;whiteSpace=wrap;html=1;rotation=-90;" vertex="1" parent="PNV96j3bK7je-6W51t46-22">
          <mxGeometry x="7.5" y="-7.3509933774834435" width="45" height="58.80794701986755" as="geometry" />
        </mxCell>
        <mxCell id="PNV96j3bK7je-6W51t46-24" value="" style="rounded=0;whiteSpace=wrap;html=1;rotation=90;" vertex="1" parent="PNV96j3bK7je-6W51t46-22">
          <mxGeometry x="24.375" y="45.20860927152317" width="11.25" height="9.556291390728475" as="geometry" />
        </mxCell>
        <mxCell id="PNV96j3bK7je-6W51t46-26" style="edgeStyle=orthogonalEdgeStyle;rounded=0;orthogonalLoop=1;jettySize=auto;html=1;exitX=0.5;exitY=1;exitDx=0;exitDy=0;entryX=1;entryY=0.5;entryDx=0;entryDy=0;" edge="1" parent="1" source="PNV96j3bK7je-6W51t46-25" target="PNV96j3bK7je-6W51t46-1">
          <mxGeometry relative="1" as="geometry" />
        </mxCell>
        <mxCell id="PNV96j3bK7je-6W51t46-25" value="example" style="rounded=1;whiteSpace=wrap;html=1;fillColor=#dae8fc;strokeColor=#6c8ebf;" vertex="1" parent="1">
          <mxGeometry x="155" y="81" width="70" height="30" as="geometry" />
        </mxCell>
        <mxCell id="PNV96j3bK7je-6W51t46-27" value="prediction" style="rounded=1;whiteSpace=wrap;html=1;fillColor=#f8cecc;strokeColor=#b85450;" vertex="1" parent="1">
          <mxGeometry x="155" y="226.5" width="70" height="30" as="geometry" />
        </mxCell>
        <mxCell id="PNV96j3bK7je-6W51t46-28" style="edgeStyle=orthogonalEdgeStyle;rounded=0;orthogonalLoop=1;jettySize=auto;html=1;" edge="1" parent="1" source="PNV96j3bK7je-6W51t46-3" target="PNV96j3bK7je-6W51t46-27">
          <mxGeometry relative="1" as="geometry" />
        </mxCell>
        <mxCell id="PNV96j3bK7je-6W51t46-30" style="edgeStyle=orthogonalEdgeStyle;rounded=0;orthogonalLoop=1;jettySize=auto;html=1;" edge="1" parent="1" source="PNV96j3bK7je-6W51t46-29">
          <mxGeometry relative="1" as="geometry">
            <mxPoint x="330" y="131" as="targetPoint" />
          </mxGeometry>
        </mxCell>
        <mxCell id="PNV96j3bK7je-6W51t46-31" style="edgeStyle=orthogonalEdgeStyle;rounded=0;orthogonalLoop=1;jettySize=auto;html=1;entryX=1;entryY=0.5;entryDx=0;entryDy=0;" edge="1" parent="1" source="PNV96j3bK7je-6W51t46-29" target="PNV96j3bK7je-6W51t46-11">
          <mxGeometry relative="1" as="geometry" />
        </mxCell>
        <mxCell id="PNV96j3bK7je-6W51t46-33" style="edgeStyle=orthogonalEdgeStyle;rounded=0;orthogonalLoop=1;jettySize=auto;html=1;entryX=1;entryY=0.5;entryDx=0;entryDy=0;" edge="1" parent="1" source="PNV96j3bK7je-6W51t46-29" target="PNV96j3bK7je-6W51t46-14">
          <mxGeometry relative="1" as="geometry" />
        </mxCell>
        <mxCell id="PNV96j3bK7je-6W51t46-29" value="example" style="rounded=1;whiteSpace=wrap;html=1;fillColor=#dae8fc;strokeColor=#6c8ebf;" vertex="1" parent="1">
          <mxGeometry x="365" y="80" width="70" height="30" as="geometry" />
        </mxCell>
        <mxCell id="PNV96j3bK7je-6W51t46-40" style="edgeStyle=orthogonalEdgeStyle;rounded=0;orthogonalLoop=1;jettySize=auto;html=1;entryX=0.5;entryY=0;entryDx=0;entryDy=0;" edge="1" parent="1" source="PNV96j3bK7je-6W51t46-34" target="PNV96j3bK7je-6W51t46-39">
          <mxGeometry relative="1" as="geometry" />
        </mxCell>
        <mxCell id="PNV96j3bK7je-6W51t46-34" value="vote" style="rounded=1;whiteSpace=wrap;html=1;" vertex="1" parent="1">
          <mxGeometry x="375" y="208" width="50" height="30" as="geometry" />
        </mxCell>
        <mxCell id="PNV96j3bK7je-6W51t46-35" style="edgeStyle=orthogonalEdgeStyle;rounded=0;orthogonalLoop=1;jettySize=auto;html=1;entryX=0;entryY=0.5;entryDx=0;entryDy=0;exitX=1;exitY=0.5;exitDx=0;exitDy=0;" edge="1" parent="1" source="PNV96j3bK7je-6W51t46-9" target="PNV96j3bK7je-6W51t46-34">
          <mxGeometry relative="1" as="geometry">
            <mxPoint x="330" y="191" as="sourcePoint" />
          </mxGeometry>
        </mxCell>
        <mxCell id="PNV96j3bK7je-6W51t46-36" style="edgeStyle=orthogonalEdgeStyle;rounded=0;orthogonalLoop=1;jettySize=auto;html=1;entryX=0.5;entryY=0;entryDx=0;entryDy=0;" edge="1" parent="1" source="PNV96j3bK7je-6W51t46-12" target="PNV96j3bK7je-6W51t46-34">
          <mxGeometry relative="1" as="geometry" />
        </mxCell>
        <mxCell id="PNV96j3bK7je-6W51t46-37" style="edgeStyle=orthogonalEdgeStyle;rounded=0;orthogonalLoop=1;jettySize=auto;html=1;entryX=1;entryY=0.5;entryDx=0;entryDy=0;exitX=1;exitY=0.5;exitDx=0;exitDy=0;" edge="1" parent="1" source="PNV96j3bK7je-6W51t46-15" target="PNV96j3bK7je-6W51t46-34">
          <mxGeometry relative="1" as="geometry" />
        </mxCell>
        <mxCell id="PNV96j3bK7je-6W51t46-39" value="prediction" style="rounded=1;whiteSpace=wrap;html=1;fillColor=#f8cecc;strokeColor=#b85450;" vertex="1" parent="1">
          <mxGeometry x="365" y="256.5" width="70" height="30" as="geometry" />
        </mxCell>
        <mxCell id="PNV96j3bK7je-6W51t46-42" style="edgeStyle=orthogonalEdgeStyle;rounded=0;orthogonalLoop=1;jettySize=auto;html=1;entryX=1;entryY=0.5;entryDx=0;entryDy=0;" edge="1" parent="1" source="PNV96j3bK7je-6W51t46-41" target="PNV96j3bK7je-6W51t46-17">
          <mxGeometry relative="1" as="geometry" />
        </mxCell>
        <mxCell id="PNV96j3bK7je-6W51t46-41" value="example" style="rounded=1;whiteSpace=wrap;html=1;fillColor=#dae8fc;strokeColor=#6c8ebf;" vertex="1" parent="1">
          <mxGeometry x="565" y="81" width="70" height="30" as="geometry" />
        </mxCell>
        <mxCell id="PNV96j3bK7je-6W51t46-43" style="edgeStyle=orthogonalEdgeStyle;rounded=0;orthogonalLoop=1;jettySize=auto;html=1;entryX=1;entryY=0.5;entryDx=0;entryDy=0;" edge="1" parent="1" source="PNV96j3bK7je-6W51t46-18" target="PNV96j3bK7je-6W51t46-20">
          <mxGeometry relative="1" as="geometry" />
        </mxCell>
        <mxCell id="PNV96j3bK7je-6W51t46-44" style="edgeStyle=orthogonalEdgeStyle;rounded=0;orthogonalLoop=1;jettySize=auto;html=1;entryX=1;entryY=0.5;entryDx=0;entryDy=0;" edge="1" parent="1" source="PNV96j3bK7je-6W51t46-21" target="PNV96j3bK7je-6W51t46-23">
          <mxGeometry relative="1" as="geometry" />
        </mxCell>
        <mxCell id="PNV96j3bK7je-6W51t46-45" value="prediction" style="rounded=1;whiteSpace=wrap;html=1;fillColor=#f8cecc;strokeColor=#b85450;" vertex="1" parent="1">
          <mxGeometry x="565" y="358" width="70" height="30" as="geometry" />
        </mxCell>
        <mxCell id="PNV96j3bK7je-6W51t46-46" style="edgeStyle=orthogonalEdgeStyle;rounded=0;orthogonalLoop=1;jettySize=auto;html=1;entryX=0.5;entryY=0;entryDx=0;entryDy=0;" edge="1" parent="1" source="PNV96j3bK7je-6W51t46-24" target="PNV96j3bK7je-6W51t46-45">
          <mxGeometry relative="1" as="geometry" />
        </mxCell>
      </root>
    </mxGraphModel>
  </diagram>
</mxfile>
